<svg width="24" height="24" viewBox="0 0 24 24" fill="none" xmlns="http://www.w3.org/2000/svg">
<g clip-path="url(#clip0)">
<path d="M16 23C15.4 23 15 22.6 15 22V18.1C15.1 17.3 14.8 16.7 14.3 16.2C14 15.9 13.9 15.5 14.1 15.2C14.2 14.8 14.6 14.6 14.9 14.5C17.8 14.2 20.5 13.2 20.5 8.5C20.5 7.4 20.1 6.3 19.3 5.4C19 5.1 19 4.7 19.1 4.4C19.4 3.6 19.4 2.8 19.2 2C18.7 2.1 17.9 2.4 16.6 3.3C16.4 3.5 16.1 3.5 15.8 3.4C13.7 2.8 11.4 2.8 9.29998 3.4C8.99998 3.5 8.69998 3.5 8.39998 3.3C7.19998 2.4 6.29998 2.1 5.79998 2C5.59998 2.8 5.59998 3.6 5.89998 4.4C5.99998 4.8 5.99998 5.2 5.69998 5.4C4.89998 6.3 4.49998 7.4 4.49998 8.5C4.49998 13.2 7.19998 14.2 10.1 14.5C10.5 14.5 10.8 14.8 10.9 15.2C11 15.6 10.9 16 10.7 16.2C10.2 16.7 9.99998 17.3 9.99998 18V18.9V19V21.9C9.99998 22.5 9.59998 22.9 8.99998 22.9C8.39998 22.9 7.99998 22.5 7.99998 21.9V20.2C4.99998 20.7 3.69998 19 2.79998 17.9C2.39998 17.4 2.09998 17 1.69998 16.9C1.19998 16.8 0.799984 16.2 0.999984 15.7C1.09998 15.2 1.69998 14.8 2.19998 15C3.19998 15.3 3.79998 16 4.39998 16.7C5.19998 17.8 5.89998 18.6 7.99998 18.2V18.1C7.99998 17.5 8.09998 16.8 8.29998 16.3C5.49998 15.7 2.49998 13.9 2.49998 8.6C2.49998 7.1 2.99998 5.7 3.89998 4.6C3.49998 3.2 3.59998 1.9 4.19998 0.600003C4.29998 0.300003 4.49998 0.100003 4.79998 3.1665e-06C5.19998 -0.0999968 6.49998 -0.299997 9.19998 1.4C11.4 0.900003 13.7 0.900003 15.8 1.4C18.4 -0.299997 19.8 -0.0999968 20.2 3.1665e-06C20.5 0.100003 20.7 0.300003 20.8 0.600003C21.3 1.9 21.4 3.2 21.1 4.5C22 5.6 22.5 7 22.5 8.5C22.5 14.2 19.1 15.7 16.7 16.3C16.9 16.9 17 17.6 17 18.2V22C17 22.6 16.6 23 16 23Z" fill="white"/>
</g>
<defs>
<clipPath id="clip0">
<rect width="24" height="24" fill="white"/>
</clipPath>
</defs>
</svg>
